<svg xmlns="http://www.w3.org/2000/svg" xmlns:xlink="http://www.w3.org/1999/xlink" width="48" height="48" x="0" y="0" enable-background="new 0 0 48 48" version="1.1" viewBox="0 0 48 48" xml:space="preserve"><rect width="44" height="30" x="2" y="9" fill="#ECEFF1"/><g><rect width="10" height="30" x="36" y="9" fill="#FF3D00"/><rect width="10" height="30" x="2" y="9" fill="#FF3D00"/><rect width="2" height="3" x="23" y="30" fill="#FF3D00"/><path fill="#FF3D00" d="M33,27l-2-1l2-3h-3l-0.041-1.986l-2.311,1.159L28,17l-2,1l-1.993-3L22,18l-2-1l0.352,5.144l-2.312-1.128 c0,0-0.045,1.974-0.04,1.984h-3l2,3l-2,1l4,2v2c0,0,4.722-0.259,5-0.259S29,31,29,31v-2L33,27z"/></g></svg>